<svg width="24px" height="24px" viewBox="0 0 24 24" fill="none" xmlns="http://www.w3.org/2000/svg">
  <defs>
    <linearGradient id="alignTopGradient" x1="0%" y1="0%" x2="100%" y2="100%">
      <stop offset="0%" style="stop-color:#66BB6A;stop-opacity:1" />
      <stop offset="100%" style="stop-color:#2E7D32;stop-opacity:1" />
    </linearGradient>
  </defs>
  <path clip-rule="evenodd" d="M4 3.5C3.72386 3.5 3.5 3.72386 3.5 4C3.5 4.27614 3.72386 4.5 4 4.5H20C20.2761 4.5 20.5 4.27614 20.5 4C20.5 3.72386 20.2761 3.5 20 3.5H4ZM6 7.5C4.61929 7.5 3.5 8.61929 3.5 10V18C3.5 19.3807 4.61929 20.5 6 20.5H8C9.38071 20.5 10.5 19.3807 10.5 18V10C10.5 8.61929 9.38071 7.5 8 7.5H6ZM16 7.5C14.6193 7.5 13.5 8.61929 13.5 10V14C13.5 15.3807 14.6193 16.5 16 16.5H18C19.3807 16.5 20.5 15.3807 20.5 14V10C20.5 8.61929 19.3807 7.5 18 7.5H16Z" fill="url(#alignTopGradient)" fill-rule="evenodd" stroke="#A5D6A7" stroke-width="0.5"/>
</svg>