<svg width="24px" height="24px" viewBox="0 0 24 24" fill="none" xmlns="http://www.w3.org/2000/svg">
  <defs>
    <linearGradient id="alignRightGradient" x1="0%" y1="0%" x2="100%" y2="100%">
      <stop offset="0%" style="stop-color:#66BB6A;stop-opacity:1" />
      <stop offset="100%" style="stop-color:#2E7D32;stop-opacity:1" />
    </linearGradient>
  </defs>
  <path clip-rule="evenodd" d="M6 3.5C4.61929 3.5 3.5 4.61929 3.5 6V8C3.5 9.38071 4.61929 10.5 6 10.5H14C15.3807 10.5 16.5 9.38071 16.5 8V6C16.5 4.61929 15.3807 3.5 14 3.5H6ZM20.5 4C20.5 3.72386 20.2761 3.5 20 3.5C19.7239 3.5 19.5 3.72386 19.5 4V20C19.5 20.2761 19.7239 20.5 20 20.5C20.2761 20.5 20.5 20.2761 20.5 20V4ZM10 13.5C8.61929 13.5 7.5 14.6193 7.5 16V18C7.5 19.3807 8.61929 20.5 10 20.5H14C15.3807 20.5 16.5 19.3807 16.5 18V16C16.5 14.6193 15.3807 13.5 14 13.5H10Z" fill="url(#alignRightGradient)" fill-rule="evenodd" stroke="#A5D6A7" stroke-width="0.5"/>
</svg>