<svg width="24" height="24" viewBox="0 0 24 24" xmlns="http://www.w3.org/2000/svg">
<path d="M 3 5.3 C 3 4 4 3 5.3 3 H 16.3 C 17.5 3 18.5 4 18.5 5.3 V 16.3 C 18.5 17.5 17.5 18.5 16.3 18.5 H 5.3 C 4 18.5 3 17.5 3 16.3 V 5.3 Z M 11.5 7.3 C 11.5 6.8 11.2 6.5 10.8 6.5 C 10.3 6.5 10 6.8 10 7.3 V 10 H 7.3 C 6.8 10 6.5 10.3 6.5 10.8 C 6.5 11.2 6.8 11.5 7.3 11.5 H 10 V 14.3 C 10 14.7 10.3 15 10.8 15 C 11.2 15 11.5 14.7 11.5 14.3 V 11.5 H 14.3 C 14.7 11.5 15 11.2 15 10.8 C 15 10.3 14.7 10 14.3 10 H 11.5 V 7.3 Z M 7.8 21 C 6.8 21 5.9 20.4 5.6 19.5 H 16.3 C 18 19.5 19.5 18 19.5 16.2 V 5.6 C 20.4 5.9 21 6.8 21 7.7 V 16.2 C 21 18.9 18.9 21 16.3 21 H 7.8 Z" fill="#69ff70"/>
</svg>
