<svg width="24" height="24" viewBox="0 0 24 24" xmlns="http://www.w3.org/2000/svg">
    <defs>
        <linearGradient id="styleGrad" x1="0%" y1="0%" x2="100%" y2="100%">
            <stop offset="0%" style="stop-color:#FFD54F;stop-opacity:1" />
            <stop offset="100%" style="stop-color:#FF8F00;stop-opacity:1" />
        </linearGradient>
    </defs>
    <path d="M12 3c-4.97 0-9 4.03-9 9s4.03 9 9 9c.83 0 1.5-.67 1.5-1.5 0-.39-.15-.74-.39-1.01-.23-.26-.38-.61-.38-.99 0-.83.67-1.5 1.5-1.5H16c2.76 0 5-2.24 5-5 0-4.42-4.03-8-9-8zm-5.5 9c-.83 0-1.5-.67-1.5-1.5S5.67 9 6.5 9 8 9.67 8 10.5 7.33 12 6.5 12zm3-4C8.67 8 8 7.33 8 6.5S8.67 5 9.5 5s1.5.67 1.5 1.5S10.33 8 9.5 8zm5 0c-.83 0-1.5-.67-1.5-1.5S13.67 5 14.5 5s1.5.67 1.5 1.5S15.33 8 14.5 8zm3 4c-.83 0-1.5-.67-1.5-1.5S16.67 9 17.5 9s1.5.67 1.5 1.5-.67 1.5-1.5 1.5z" fill="url(#styleGrad)"/>
    <circle cx="6.5" cy="10.5" r="1" fill="#F44336"/>
    <circle cx="9.5" cy="6.5" r="1" fill="#4CAF50"/>
    <circle cx="14.5" cy="6.5" r="1" fill="#2196F3"/>
    <circle cx="17.5" cy="10.5" r="1" fill="#FFEB3B"/>
</svg>