<svg width="24" height="24" viewBox="0 0 24 24" xmlns="http://www.w3.org/2000/svg">
    <defs>
        <linearGradient id="tagGrad" x1="0%" y1="0%" x2="100%" y2="100%">
            <stop offset="0%" style="stop-color:#64B5F6;stop-opacity:1" />
            <stop offset="100%" style="stop-color:#1E88E5;stop-opacity:1" />
        </linearGradient>
    </defs>
    <path d="M21.41 11.58l-9-9C12.04 2.21 11.53 2 11 2H4c-1.1 0-2 .9-2 2v7c0 .53.21 1.04.59 1.41l9 9c.37.38.89.59 1.41.59s1.04-.21 1.41-.59l7-7c.38-.37.59-.88.59-1.41s-.21-1.04-.59-1.42z" fill="url(#tagGrad)"/>
    <circle cx="6.5" cy="6.5" r="1.5" fill="white"/>
    <path d="M13 13l4 4m0-4l-4 4" stroke="white" stroke-width="2" stroke-linecap="round"/>
</svg>