<svg width="24" height="24" viewBox="0 0 24 24" xmlns="http://www.w3.org/2000/svg">
    <defs>
        <linearGradient id="userAlarmGrad" x1="0%" y1="0%" x2="100%" y2="100%">
            <stop offset="0%" style="stop-color:#90CAF9;stop-opacity:1" />
            <stop offset="100%" style="stop-color:#1976D2;stop-opacity:1" />
        </linearGradient>
        <linearGradient id="bellGrad" x1="0%" y1="0%" x2="100%" y2="100%">
            <stop offset="0%" style="stop-color:#FFD54F;stop-opacity:1" />
            <stop offset="100%" style="stop-color:#F57C00;stop-opacity:1" />
        </linearGradient>
    </defs>
    <path d="M12 22c1.1 0 2-.9 2-2h-4c0 1.1.9 2 2 2zm6-6v-5c0-3.07-1.63-5.64-4.5-6.32V4c0-.83-.67-1.5-1.5-1.5s-1.5.67-1.5 1.5v.68C7.64 5.36 6 7.92 6 11v5l-2 2v1h16v-1l-2-2z" fill="url(#bellGrad)"/>
    <circle cx="12" cy="11" r="3" fill="url(#userAlarmGrad)" opacity="0.8"/>
    <path d="M12 14c-2 0-4 1-4 2v1h8v-1c0-1-2-2-4-2z" fill="url(#userAlarmGrad)"/>
</svg>
