<svg width="24" height="24" viewBox="0 0 24 24" xmlns="http://www.w3.org/2000/svg">
    <defs>
        <linearGradient id="globeGrad" x1="0%" y1="0%" x2="100%" y2="100%">
            <stop offset="0%" style="stop-color:#42A5F5;stop-opacity:1" />
            <stop offset="100%" style="stop-color:#1976D2;stop-opacity:1" />
        </linearGradient>
        <linearGradient id="landGrad" x1="0%" y1="0%" x2="100%" y2="100%">
            <stop offset="0%" style="stop-color:#81C784;stop-opacity:1" />
            <stop offset="100%" style="stop-color:#4CAF50;stop-opacity:1" />
        </linearGradient>
    </defs>
    <circle cx="12" cy="12" r="10" fill="url(#globeGrad)" />
    <path d="M12 2C14.5 2 16.5 6.5 16.5 12C16.5 17.5 14.5 22 12 22C9.5 22 7.5 17.5 7.5 12C7.5 6.5 9.5 2 12 2Z" fill="none" stroke="rgb(255,255,255)" stroke-opacity="0.3" stroke-width="1"/>
    <path d="M2 12H22" stroke="rgb(255,255,255)" stroke-opacity="0.3" stroke-width="1"/>
    <path d="M12 2C12 2 15 5 15 8C15 11 11 13 11 16C11 19 14 22 14 22" fill="none" stroke="url(#landGrad)" stroke-width="3" stroke-linecap="round" opacity="0.8"/>
</svg>