<svg width="24" height="24" viewBox="0 0 24 24" xmlns="http://www.w3.org/2000/svg">
    <defs>
        <linearGradient id="systemAlarmGrad" x1="0%" y1="0%" x2="100%" y2="100%">
            <stop offset="0%" style="stop-color:#EF5350;stop-opacity:1" />
            <stop offset="100%" style="stop-color:#C62828;stop-opacity:1" />
        </linearGradient>
        <linearGradient id="bellGrad" x1="0%" y1="0%" x2="100%" y2="100%">
            <stop offset="0%" style="stop-color:#FFD54F;stop-opacity:1" />
            <stop offset="100%" style="stop-color:#F57C00;stop-opacity:1" />
        </linearGradient>
    </defs>
    <path d="M12 22c1.1 0 2-.9 2-2h-4c0 1.1.9 2 2 2zm6-6v-5c0-3.07-1.63-5.64-4.5-6.32V4c0-.83-.67-1.5-1.5-1.5s-1.5.67-1.5 1.5v.68C7.64 5.36 6 7.92 6 11v5l-2 2v1h16v-1l-2-2z" fill="url(#bellGrad)"/>
    <path d="M12 8v4m0 2h.01" stroke="url(#systemAlarmGrad)" stroke-width="2" stroke-linecap="round"/>
</svg>
