<svg width="24" height="24" viewBox="0 0 24 24" xmlns="http://www.w3.org/2000/svg">
    <defs>
        <linearGradient id="rfidGrad" x1="0%" y1="0%" x2="100%" y2="100%">
            <stop offset="0%" style="stop-color: #64B5F6; stop-opacity: 1" />
            <stop offset="100%" style="stop-color: #1E88E5; stop-opacity: 1" />
        </linearGradient>
    </defs>
    <rect x="3" y="1.4" width="18" height="16" rx="2" fill="url(#rfidGrad)"/>
    <circle cx="12" cy="12" r="2" fill="white"/>
    <path d="M 12 8 a 4 4 0 0 1 4 4 M 12 6 a 6 6 0 0 1 6 6 M 12 4 a 8 8 0 0 1 8 8" stroke="white" stroke-width="1.5" fill="none" stroke-linecap="round" opacity="0.6"/>
    <path d="M 12 8 a 4 4 0 0 0 -4 4 M 12 6 a 6 6 0 0 0 -6 6 M 12 4 a 8 8 0 0 0 -8 8" stroke="white" stroke-width="1.5" fill="none" stroke-linecap="round" opacity="0.6"/>
</svg>