<svg width="24" height="24" viewBox="0 0 24 24" xmlns="http://www.w3.org/2000/svg">
    <defs>
        <linearGradient id="boldGrad" x1="0%" y1="0%" x2="100%" y2="100%">
            <stop offset="0%" style="stop-color:#90CAF9;stop-opacity:1" />
            <stop offset="100%" style="stop-color:#1976D2;stop-opacity:1" />
        </linearGradient>
    </defs>
    <path d="M15.6 10.79c.97-.67 1.65-1.77 1.65-2.79 0-2.26-1.75-4-4-4H7v14h7.04c2.09 0 3.71-1.7 3.71-3.79 0-1.7-.86-2.82-2.15-3.42zM10.25 6.75h2.5c.69 0 1.25.56 1.25 1.25s-.56 1.25-1.25 1.25h-2.5v-2.5zm3 9h-3v-2.5h3c.69 0 1.25.56 1.25 1.25s-.56 1.25-1.25 1.25z" fill="url(#boldGrad)"/>
</svg>