<svg width="24" height="24" viewBox="0 0 24 24" xmlns="http://www.w3.org/2000/svg">
    <defs>
        <linearGradient id="popupGrad" x1="0%" y1="0%" x2="100%" y2="100%">
            <stop offset="0%" style="stop-color:#81C784;stop-opacity:1" />
            <stop offset="100%" style="stop-color:#2E7D32;stop-opacity:1" />
        </linearGradient>
        <linearGradient id="bellGrad" x1="0%" y1="0%" x2="100%" y2="100%">
            <stop offset="0%" style="stop-color:#FFD54F;stop-opacity:1" />
            <stop offset="100%" style="stop-color:#F57C00;stop-opacity:1" />
        </linearGradient>
    </defs>
    <rect x="2" y="2" width="20" height="20" rx="2" fill="url(#popupGrad)" opacity="0.2"/>
    <path d="M12 22c1.1 0 2-.9 2-2h-4c0 1.1.9 2 2 2zm6-6v-5c0-3.07-1.63-5.64-4.5-6.32V4c0-.83-.67-1.5-1.5-1.5s-1.5.67-1.5 1.5v.68C7.64 5.36 6 7.92 6 11v5l-2 2v1h16v-1l-2-2z" fill="url(#bellGrad)"/>
    <rect x="14" y="14" width="8" height="8" rx="1" fill="url(#popupGrad)" stroke="white" stroke-width="1"/>
</svg>
