<svg width="24px" height="24px" viewBox="0 0 24 24" fill="none" xmlns="http://www.w3.org/2000/svg">
  <defs>
    <linearGradient id="distributeHGradient" x1="0%" y1="0%" x2="100%" y2="100%">
      <stop offset="0%" style="stop-color:#66BB6A;stop-opacity:1" />
      <stop offset="100%" style="stop-color:#2E7D32;stop-opacity:1" />
    </linearGradient>
  </defs>
  <path clip-rule="evenodd" d="M5.5 3C5.5 2.72386 5.27614 2.5 5 2.5C4.72386 2.5 4.5 2.72386 4.5 3V21C4.5 21.2761 4.72386 21.5 5 21.5C5.27614 21.5 5.5 21.2761 5.5 21V3ZM19.5 3C19.5 2.72386 19.2761 2.5 19 2.5C18.7239 2.5 18.5 2.72386 18.5 3V21C18.5 21.2761 18.7239 21.5 19 21.5C19.2761 21.5 19.5 21.2761 19.5 21V3ZM11 3.5C9.61929 3.5 8.5 4.61929 8.5 6V18C8.5 19.3807 9.61929 20.5 11 20.5H13C14.3807 20.5 15.5 19.3807 15.5 18V6C15.5 4.61929 14.3807 3.5 13 3.5H11Z" fill="url(#distributeHGradient)" fill-rule="evenodd" stroke="#A5D6A7" stroke-width="0.5"/>
</svg>