<svg width="24" height="24" viewBox="0 0 24 24" xmlns="http://www.w3.org/2000/svg">
    <defs>
        <linearGradient id="folderGradient" x1="0%" y1="0%" x2="100%" y2="100%">
            <stop offset="0%" style="stop-color:#FFCA28;stop-opacity:1" />
            <stop offset="100%" style="stop-color:#FF8F00;stop-opacity:1" />
        </linearGradient>
    </defs>
    <path d="M5 4H9.58579C9.84102 4 10.0855 4.10536 10.2728 4.29289L11.7272 5.72721C11.9147 5.91475 12.159 6.02011 12.4142 6.02011H19C20.1046 6.02011 21 6.91554 21 8.02011V18C21 19.1046 20.1046 20 19 20H5C3.89543 20 3 19.1046 3 18V6C3 4.89543 3.89543 4 5 4Z" fill="url(#folderGradient)" stroke="#FFE0B2" stroke-width="1.5" stroke-linejoin="round"/>
    <circle cx="7" cy="14" r="1.5" fill="white" opacity="0.6"/>
    <circle cx="13" cy="14" r="1.5" fill="white" opacity="0.6"/>
    <circle cx="18" cy="14" r="1.5" fill="white" opacity="0.6"/>
</svg>
