<svg width="24" height="24" viewBox="0 0 24 24" xmlns="http://www.w3.org/2000/svg">
    <defs>
        <linearGradient id="userAlarmGrad" x1="0%" y1="0%" x2="100%" y2="100%">
            <stop offset="0%" style="stop-color:#FFB74D;stop-opacity:1" />
            <stop offset="100%" style="stop-color:#F57C00;stop-opacity:1" />
        </linearGradient>
    </defs>
    <path d="M12 22c1.1 0 2-.9 2-2h-4c0 1.1.9 2 2 2zm6-6v-5c0-3.07-1.63-5.64-4.5-6.32V4c0-.83-.67-1.5-1.5-1.5s-1.5.67-1.5 1.5v.68C7.64 5.36 6 7.92 6 11v5l-2 2v1h16v-1l-2-2z" fill="url(#userAlarmGrad)" stroke="#FFE0B2" stroke-width="1"/>
    <circle cx="12" cy="10" r="2" fill="white" opacity="0.8"/>
    <path d="M9 15c0-1.1.9-2 2-2h2c1.1 0 2 .9 2 2" fill="none" stroke="white" stroke-width="1.5" stroke-linecap="round"/>
</svg>
