<svg width="24" height="24" viewBox="0 0 24 24" xmlns="http://www.w3.org/2000/svg">
    <defs>
        <linearGradient id="printGrad" x1="0%" y1="0%" x2="100%" y2="100%">
            <stop offset="0%" style="stop-color:#BDBDBD;stop-opacity:1" />
            <stop offset="100%" style="stop-color:#616161;stop-opacity:1" />
        </linearGradient>
    </defs>
    <path d="M19 8h-1V3H6v5H5c-1.66 0-3 1.34-3 3v6h4v4h12v-4h4v-6c0-1.66-1.34-3-3-3zM8 5h8v3H8V5zm8 14H8v-4h8v4zm2-7c-.55 0-1-.45-1-1s.45-1 1-1 1 .45 1 1-.45 1-1 1z" fill="url(#printGrad)" stroke="#F5F5F5" stroke-width="0.5"/>
</svg>
