<svg width="24" height="24" viewBox="0 0 24 24" xmlns="http://www.w3.org/2000/svg">
    <defs>
        <linearGradient id="textGrad" x1="0%" y1="0%" x2="100%" y2="100%">
            <stop offset="0%" style="stop-color: #4FC3F7; stop-opacity: 1" />
            <stop offset="100%" style="stop-color: #0288D1; stop-opacity: 1" />
        </linearGradient>
    </defs>
    <rect x="2" y="6" width="20" height="12" rx="2" fill="url(#textGrad)" stroke="#b3e5fc" stroke-width="1"/>
    <path d="M 5 15 L 7.5 9 H 9.5 L 12 15 H 10.2 L 9.3 13 H 7.6 L 6.8 15 H 5 Z M 8.5 10.2 L 7.8 12 H 9.2 L 8.5 10.2 Z M 13 9 H 14.5 V 15 H 13 V 9 Z M 20 11.5 V 15 H 18.8 V 14.4 C 18.5 14.8 18 15.1 17.3 15.1 C 16.2 15.1 15.5 14.3 15.5 13.3 C 15.5 12.3 16.2 11.5 17.3 11.5 C 18 11.5 18.5 11.8 18.8 12.2 V 11.5 H 20 Z M 18.3 13.2 C 18.3 12.6 17.8 12.4 17.3 12.4 C 16.6 12.4 16.4 12.8 16.4 13.3 C 16.4 13.9 16.8 14.1 17.3 14.1 C 18 14 18.3 13.8 18.3 13.2 Z" fill="white"/>
</svg>
