<svg width="24" height="24" viewBox="0 0 24 24" xmlns="http://www.w3.org/2000/svg">
    <defs>
        <linearGradient id="lampGrad" x1="0%" y1="0%" x2="100%" y2="100%">
            <stop offset="0%" style="stop-color:#FFF176;stop-opacity:1" />
            <stop offset="100%" style="stop-color:#FBC02D;stop-opacity:1" />
        </linearGradient>
        <linearGradient id="baseGrad" x1="0%" y1="0%" x2="100%" y2="100%">
            <stop offset="0%" style="stop-color:#BDBDBD;stop-opacity:1" />
            <stop offset="100%" style="stop-color:#757575;stop-opacity:1" />
        </linearGradient>
    </defs>
    <path d="M12 2C8.13 2 5 5.13 5 9c0 2.38 1.19 4.47 3 5.74V17c0 .55.45 1 1 1h6c.55 0 1-.45 1-1v-2.26c1.81-1.27 3-3.36 3-5.74 0-3.87-3.13-7-7-7z" fill="url(#lampGrad)" stroke="#FFF9C4" stroke-width="0.5"/>
    <path d="M9 19h6v1H9zM10 21h4v1h-4z" fill="url(#baseGrad)"/>
    <path d="M12 4v2M17.66 6.34l-1.41 1.41M20 12h-2M17.66 17.66l-1.41-1.41M12 20v-2M6.34 17.66l1.41-1.41M4 12h2M6.34 6.34l1.41 1.41" stroke="#FBC02D" stroke-width="1" stroke-linecap="round" opacity="0.6"/>
</svg>
