<svg width="24" height="24" viewBox="0 0 24 24" xmlns="http://www.w3.org/2000/svg">
    <defs>
        <linearGradient id="calcGrad" x1="0%" y1="0%" x2="100%" y2="100%">
            <stop offset="0%" style="stop-color:#90A4AE;stop-opacity:1" />
            <stop offset="100%" style="stop-color:#455A64;stop-opacity:1" />
        </linearGradient>
        <linearGradient id="screenGrad" x1="0%" y1="0%" x2="100%" y2="100%">
            <stop offset="0%" style="stop-color:#81C784;stop-opacity:1" />
            <stop offset="100%" style="stop-color:#4CAF50;stop-opacity:1" />
        </linearGradient>
    </defs>
    <rect x="4" y="2" width="16" height="20" rx="2" fill="url(#calcGrad)" stroke="#CFD8DC" stroke-width="1"/>
    <rect x="6" y="4" width="12" height="5" rx="1" fill="url(#screenGrad)"/>
    <rect x="7" y="11" width="2" height="2" rx="0.5" fill="white"/>
    <rect x="11" y="11" width="2" height="2" rx="0.5" fill="white"/>
    <rect x="15" y="11" width="2" height="2" rx="0.5" fill="white"/>
    <rect x="7" y="15" width="2" height="2" rx="0.5" fill="white"/>
    <rect x="11" y="15" width="2" height="2" rx="0.5" fill="white"/>
    <rect x="15" y="15" width="2" height="2" rx="0.5" fill="white"/>
    <rect x="7" y="19" width="2" height="2" rx="0.5" fill="white"/>
    <rect x="11" y="19" width="6" height="2" rx="0.5" fill="#FF8A80"/>
</svg>
