<svg width="24" height="24" viewBox="0 0 24 24" xmlns="http://www.w3.org/2000/svg">
    <defs>
        <linearGradient id="batchColorGradient" x1="0%" y1="0%" x2="100%" y2="100%">
            <stop offset="0%" style="stop-color:#FF8A65;stop-opacity:1" />
            <stop offset="100%" style="stop-color:#E64A19;stop-opacity:1" />
        </linearGradient>
    </defs>
    <path fill="url(#batchColorGradient)" stroke="#FFAB91" stroke-width="0.5" d="M12 2C6.49 2 2 6.49 2 12s4.49 10 10 10c1.38 0 2.5-1.12 2.5-2.5 0-.61-.23-1.21-.64-1.67-.08-.09-.13-.21-.13-.33 0-.28.22-.5.5-.5H16c3.31 0 6-2.69 6-6 0-4.96-4.49-9-10-9zm-5.5 9c-.83 0-1.5-.67-1.5-1.5S5.67 8 6.5 8 8 8.67 8 9.5 7.33 11 6.5 11zm3-4C8.67 7 8 6.33 8 5.5S8.67 4 9.5 4s1.5.67 1.5 1.5S10.33 7 9.5 7zm5 0c-.83 0-1.5-.67-1.5-1.5S13.67 4 14.5 4s1.5.67 1.5 1.5S15.33 7 14.5 7zm3 4c-.83 0-1.5-.67-1.5-1.5S16.67 8 17.5 8s1.5.67 1.5 1.5-.67 1.5-1.5 1.5z"/>
</svg>