<svg width="24" height="24" viewBox="0 0 24 24" xmlns="http://www.w3.org/2000/svg">
    <defs>
        <linearGradient id="searchTagGradient" x1="0%" y1="0%" x2="100%" y2="100%">
            <stop offset="0%" style="stop-color:#29B6F6;stop-opacity:1" />
            <stop offset="100%" style="stop-color:#0288D1;stop-opacity:1" />
        </linearGradient>
    </defs>
	<path fill="url(#searchTagGradient)" stroke="#81D4FA" stroke-width="0.5" d="m21.41 11.58l-9-9C12.05 2.22 11.55 2 11 2H4c-1.11 0-2 .89-2 2v7c0 .55.22 1.05.59 1.41l8.99 9c.37.36.87.59 1.42.59s1.05-.23 1.41-.59l.42-.41C11.6 20.9 9 18.26 9 15c0-3.31 2.69-6 6-6c3.26 0 5.9 2.6 6 5.83l.41-.42c.37-.36.59-.86.59-1.41c0-.56-.23-1.06-.59-1.42M5.5 7C4.67 7 4 6.33 4 5.5S4.67 4 5.5 4S7 4.67 7 5.5S6.33 7 5.5 7m9.61 3.61c2.5 0 4.5 2 4.5 4.5c0 .89-.25 1.71-.69 2.39L22 20.61L20.61 22l-3.11-3.07c-.7.43-1.5.68-2.39.68c-2.5 0-4.5-2-4.5-4.5s2-4.5 4.5-4.5m0 2a2.5 2.5 0 1 0 2.5 2.5c0-1.39-1.11-2.5-2.5-2.5" />
</svg>