<svg width="24" height="24" viewBox="0 0 24 24" xmlns="http://www.w3.org/2000/svg">
    <defs>
        <linearGradient id="dataBrowserGradient" x1="0%" y1="0%" x2="100%" y2="100%">
            <stop offset="0%" style="stop-color:#29B6F6;stop-opacity:1" />
            <stop offset="100%" style="stop-color:#0288D1;stop-opacity:1" />
        </linearGradient>
    </defs>
    <path d="M12 2C6.48 2 2 6.48 2 12C2 17.52 6.48 22 12 22C17.52 22 22 17.52 22 12C22 6.48 17.52 2 12 2Z" stroke="url(#dataBrowserGradient)" stroke-width="1.5" fill="none"/>
    <path d="M2 12H22" stroke="url(#dataBrowserGradient)" stroke-width="1.5" />
    <path d="M12 2C14.76 2 17 6.48 17 12C17 17.52 14.76 22 12 22C9.24 22 7 17.52 7 12C7 6.48 9.24 2 12 2Z" stroke="url(#dataBrowserGradient)" stroke-width="1.5" fill="none"/>
</svg>
